PathFileType	4	(X/Y/Z)	D:\TRACE\spotREDO_2-26-24\spot_justBody_Motion_1_3-platform.trc
DataRate	CameraRate	NumFrames	NumMarkers	Units	OrigDataRate	OrigDataStartFrame	OrigNumFrames
100.00	100.00	      42	5	mm	100.00	3501	      7000
Frame#	Time	Left_Front			Right_Front			Left_Aft			Right_Aft			Post			
		X1	Y1	Z1	X2	Y2	Z2	X3	Y3	Z3	X4	Y4	Z4	X5	Y5	Z5	

3501	35.000	-731.38733	-19.15199	-579.27936	683.38116	-8.61888	-494.87283	-802.75720	20.55915	639.03693	767.69897	27.68502	642.27252	-21.63688	597.13910	-1002.31635	
3502	35.010	-731.99646	-18.90709	-579.15961	682.73480	-8.26647	-494.81097	-803.54749	20.25937	639.32703	766.73206	27.26339	642.31744	-22.51977	597.71777	-1002.07837	
3503	35.020	-732.88684	-18.67608	-579.10437	681.72626	-7.68121	-494.76987	-804.26837	20.12560	639.35181	765.96222	26.87079	642.45386	-23.15039	598.31207	-1001.75232	
3504	35.030	-733.78253	-18.17507	-578.97766	681.07697	-7.56653	-494.58237	-805.06897	19.69124	639.40228	765.25830	26.45803	642.51727	-23.98824	599.08997	-1001.05762	
3505	35.040	-734.37848	-17.70092	-579.02826	680.39008	-7.23741	-494.60928	-805.92200	19.22729	639.42102	764.57001	26.21578	642.72260	-24.97910	599.62079	-1000.33313	
3506	35.050	-735.13116	-17.34693	-578.98804	679.93506	-7.06028	-494.53088	-806.37671	18.67190	639.58765	763.63837	25.68798	642.80713	-25.58880	600.22699	-999.51263	
3507	35.060	-735.82922	-17.09251	-578.89954	678.78937	-6.64115	-494.41122	-807.01483	18.21527	639.49976	763.08868	25.32757	642.88354	-26.05999	601.18152	-998.70233	
3508	35.070	-736.57068	-16.75974	-578.66364	678.26556	-6.39232	-494.25049	-807.84326	17.77203	639.69916	762.58374	25.03210	642.96600	-26.76878	601.70233	-998.11664	
3509	35.080	-737.15259	-16.26638	-578.60425	677.62408	-5.91678	-494.34921	-808.45941	17.52015	639.88800	761.91412	24.31474	642.93011	-27.64028	602.35229	-997.54913	
3510	35.090	-737.56787	-15.81361	-578.27063	676.96454	-5.71047	-494.00156	-809.28162	17.34948	640.08228	761.13513	23.54513	642.95068	-28.27560	603.05231	-997.19580	
3511	35.100	-738.57196	-15.46059	-578.44104	676.44159	-5.50030	-493.84625	-809.93170	16.79598	640.14050	760.67090	23.10839	643.08356	-28.94164	603.59082	-996.80743	
3512	35.110	-739.21722	-15.21900	-578.33197	675.55469	-4.88787	-494.03638	-810.37506	16.37298	640.37958	759.99652	22.89096	643.12671	-29.49521	604.20679	-996.27094	
3513	35.120	-739.74597	-14.89903	-578.32886	675.07019	-4.63968	-493.81805	-811.10278	15.81284	640.47949	759.39496	22.70435	643.46704	-30.06977	604.92841	-996.11499	
3514	35.130	-740.47595	-14.24198	-578.19208	674.45483	-4.35609	-493.68710	-811.55957	15.47185	640.65527	758.83093	22.13585	643.21088	-30.64688	605.55103	-995.86615	
3515	35.140	-740.87817	-13.84759	-578.02264	673.90851	-3.87196	-493.61694	-812.07275	15.01183	640.65808	758.34454	21.99986	643.50940	-31.24970	606.14594	-995.66010	
3516	35.150	-741.35217	-13.54186	-577.97717	673.37665	-3.57536	-493.52100	-812.79474	14.65476	640.68884	757.72900	21.50097	643.61365	-31.87400	606.95642	-994.94702	
3517	35.160	-742.08759	-13.11096	-577.86346	672.73193	-3.34998	-493.53098	-813.11469	14.24529	640.63940	757.24719	21.21810	643.71759	-32.33032	607.45538	-994.48761	
3518	35.170	-742.56439	-12.83282	-577.72363	672.21094	-3.00809	-493.55609	-813.99084	13.77502	640.85345	756.30884	20.71472	643.87195	-32.75068	608.08423	-993.98944	
3519	35.180	-743.06561	-12.47435	-577.79181	671.79926	-2.67885	-493.24072	-814.23779	13.42043	641.15009	755.82880	20.34129	644.10876	-33.33715	609.05066	-993.11267	
3520	35.190	-743.55554	-12.00402	-577.65582	671.23999	-2.35813	-493.10577	-814.63379	13.03223	641.32544	755.67120	20.08715	644.27942	-33.81039	609.65332	-992.49622	
3521	35.200	-743.95447	-11.61322	-577.57465	670.92023	-1.95902	-493.00583	-815.23029	12.66528	641.33032	755.29236	19.66046	644.39557	-34.32496	610.35175	-991.60199	
3522	35.210	-744.19244	-11.24389	-577.34540	670.60907	-1.65338	-493.05383	-815.60034	12.68093	641.57965	754.86462	19.19407	644.53107	-34.27217	611.09375	-990.85455	
3523	35.220	-744.60663	-11.01408	-577.24817	670.26337	-1.29260	-492.84109	-815.85065	11.98408	641.51819	754.01990	18.47860	644.58386	-34.89708	611.72412	-990.61334	
3524	35.230	-745.14294	-10.42232	-577.06354	669.88696	-0.95404	-492.73181	-816.21143	11.31402	641.63666	753.79968	18.13496	644.75586	-35.12598	612.38599	-989.85687	
3525	35.240	-745.49799	-9.90683	-577.03882	669.11920	-0.48874	-492.84061	-816.57941	10.77371	641.73383	753.62628	17.92936	644.94507	-35.69804	613.12317	-989.37152	
3526	35.250	-745.77283	-9.46215	-577.10052	668.50269	0.09265	-492.84103	-816.82910	10.39032	641.81152	753.62201	17.72875	645.01074	-35.91610	613.81647	-989.02484	
3527	35.260	-745.97925	-9.05548	-576.98315	668.58398	0.21001	-492.46445	-817.06586	10.07707	641.98798	753.14191	17.08341	645.11334	-36.28231	614.46277	-988.94482	
3528	35.270	-746.06433	-8.78151	-576.93237	668.51904	0.47226	-492.26761	-817.45178	9.72429	642.15729	752.50934	16.33552	645.17273	-36.45142	615.25226	-988.26239	
3529	35.280	-746.21985	-8.48262	-576.80017	668.49225	0.72412	-492.10974	-817.71594	9.32731	642.21167	752.41016	16.00371	645.25989	-36.63956	615.65088	-987.89819	
3530	35.290	-746.44629	-7.91929	-576.64545	668.36200	1.11728	-492.11673	-817.83997	8.98407	642.45197	752.69513	15.43737	645.17639	-36.70735	616.23853	-987.49109	
3531	35.300	-746.63843	-7.50497	-576.61658	668.02997	1.63924	-492.11133	-817.99078	8.72573	642.55798	752.61792	15.26639	645.24530	-36.79785	617.13428	-987.27869	
3532	35.310	-746.78809	-7.15706	-576.54163	667.99316	1.86324	-491.82309	-818.12555	8.38292	642.66101	752.40375	15.03759	645.43604	-37.21001	617.71027	-986.82318	
3533	35.320	-746.89966	-6.78604	-576.37518	667.94867	2.06874	-491.76807	-818.26563	7.75378	642.85583	752.30560	14.43339	645.42120	-37.15432	618.29279	-985.87738	
3534	35.330	-746.89880	-6.43889	-576.36890	667.87335	2.45454	-491.80533	-818.29089	7.24988	642.93597	752.06848	13.72169	645.77673	-37.36748	619.08728	-985.30200	
3535	35.340	-746.89764	-6.12352	-576.26660	667.84180	2.65634	-491.72968	-818.26947	6.84357	642.99713	752.09149	12.98251	645.61902	-37.34441	619.63159	-984.77966	
3536	35.350	-746.73767	-5.91479	-576.28882	667.76776	3.01316	-491.54144	-818.32751	6.58311	642.99359	751.95209	13.26041	645.93628	-37.38667	620.15216	-984.22668	
3537	35.360	-746.95831	-5.27103	-576.03711	667.91620	3.46457	-491.40781	-818.31641	6.25946	643.14172	751.88989	12.94368	645.96246	-37.44630	620.83563	-983.41168	
3538	35.370	-746.98517	-4.87149	-575.90906	667.91760	3.77903	-491.33173	-818.30975	5.82563	643.20093	751.82501	12.59816	646.09955	-37.13882	621.50525	-982.64642	
3539	35.380	-747.04480	-4.44831	-575.78088	667.85553	4.04572	-491.22736	-818.40179	5.43129	643.33875	751.79773	12.29237	646.37891	-37.17661	622.24017	-982.43726	
3540	35.390	-747.06635	-4.11543	-575.79968	667.81653	4.53547	-491.21844	-818.45398	5.06066	643.49738	751.89581	11.87234	646.52106	-37.49378	622.90302	-982.58044	
3541	35.400	-747.16193	-3.72565	-575.72601	667.81732	4.91722	-491.08694	-818.41156	4.53119	643.63580	751.81024	11.34615	646.52441	-37.44247	623.51831	-982.34729	
3542	35.410	-747.18475	-3.34928	-575.67236	667.71997	5.21971	-490.96600	-818.31891	4.08939	643.68433	751.73212	10.94069	646.69897	-37.52542	624.18250	-981.72919	
